<?xml version="1.0" encoding="UTF-8" standalone="no"?>
<svg
   xmlns:dc="http://purl.org/dc/elements/1.1/"
   xmlns:cc="http://creativecommons.org/ns#"
   xmlns:rdf="http://www.w3.org/1999/02/22-rdf-syntax-ns#"
   xmlns:svg="http://www.w3.org/2000/svg"
   xmlns="http://www.w3.org/2000/svg"
   xmlns:sodipodi="http://sodipodi.sourceforge.net/DTD/sodipodi-0.dtd"
   xmlns:inkscape="http://www.inkscape.org/namespaces/inkscape"
   inkscape:export-ydpi="162.56"
   inkscape:export-xdpi="162.56"
   inkscape:export-filename="/var/home/dave/love2d/ideal/atlas/23.png"
   sodipodi:docname="23.svg"
   inkscape:version="1.0 (4035a4fb49, 2020-05-01)"
   id="svg8"
   version="1.1"
   viewBox="0 0 160 160"
   height="160mm"
   width="160mm">
  <defs
     id="defs2">
    <path
       d="m93.3 60.56c-5.43-21.16-23.7-23.53-29.34-18.14-5.64-5.38-23.84-3.01-29.27 18.14-11.14 43.36-5.69 59.14 29.31 60.27v0.02s-0.07-0.01 0-0.01 0 0.01 0 0.01v-0.02c35-1.13 40.43-16.91 29.3-60.27z"
       id="g" />
    <path
       d="m71.77 78.07 0.01 0.48c0.02 1.34-0.3 2.61-0.88 3.72-0.23 0.44-0.51 0.86-0.82 1.25s-0.66 0.75-1.04 1.07c-1.33 1.13-3.04 1.83-4.92 1.86-0.23 0-0.47 0-0.7-0.02s-0.46-0.04-0.68-0.08c-0.67-0.11-1.32-0.3-1.92-0.57s-1.17-0.61-1.68-1.02c-0.39-0.31-0.75-0.66-1.07-1.04s-0.61-0.79-0.86-1.23c-0.62-1.09-0.98-2.35-1-3.69l-0.01-0.48c3.46-0.06 7.74-1.97 7.68-5.85 0.09 3.89 4.43 5.66 7.89 5.6z"
       id="e" />
    <path
       d="m71.77 78.07 0.01 0.48c0.02 1.34-0.3 2.61-0.88 3.72-0.23 0.44-0.51 0.86-0.82 1.25s-0.66 0.75-1.04 1.07c-1.33 1.13-3.04 1.83-4.92 1.86-0.23 0-0.47 0-0.7-0.02s-0.46-0.04-0.68-0.08c-0.67-0.11-1.32-0.3-1.92-0.57s-1.17-0.61-1.68-1.02c-0.39-0.31-0.75-0.66-1.07-1.04s-0.61-0.79-0.86-1.23c-0.62-1.09-0.98-2.35-1-3.69l-0.01-0.48c3.46-0.06 7.74-1.97 7.68-5.85 0.09 3.89 4.43 5.66 7.89 5.6z"
       id="a" />
  </defs>
  <sodipodi:namedview
     inkscape:window-maximized="1"
     inkscape:window-y="0"
     inkscape:window-x="0"
     inkscape:window-height="704"
     inkscape:window-width="1366"
     inkscape:object-paths="false"
     inkscape:snap-nodes="true"
     inkscape:snap-global="true"
     inkscape:bbox-nodes="true"
     inkscape:snap-bbox="true"
     inkscape:object-nodes="true"
     objecttolerance="1"
     guidetolerance="20"
     gridtolerance="10000"
     inkscape:pagecheckerboard="false"
     showguides="true"
     showgrid="true"
     inkscape:document-rotation="0"
     inkscape:current-layer="layer1"
     inkscape:document-units="cm"
     inkscape:cy="459.39264"
     inkscape:cx="564.28936"
     inkscape:zoom="2.8"
     inkscape:pageshadow="2"
     inkscape:pageopacity="0"
     borderopacity="1.0"
     bordercolor="#666666"
     pagecolor="#000000"
     id="base"
     inkscape:lockguides="true">
    <sodipodi:guide
       id="guide10"
       orientation="1,0"
       position="-343.20237,111.03572"
       inkscape:locked="true" />
    <inkscape:grid
       originy="0"
       originx="0"
       empspacing="16"
       spacingy="0.62499998"
       spacingx="0.62499998"
       units="mm"
       id="grid12"
       type="xygrid" />
  </sodipodi:namedview>
  <metadata
     id="metadata5">
    <rdf:RDF>
      <cc:Work
         rdf:about="">
        <dc:format>image/svg+xml</dc:format>
        <dc:type
           rdf:resource="http://purl.org/dc/dcmitype/StillImage" />
        <dc:title></dc:title>
      </cc:Work>
    </rdf:RDF>
  </metadata>
  <g
     id="layer1"
     inkscape:groupmode="layer"
     inkscape:label="Layer 1">
    <rect
       style="fill:#ff0000;fill-opacity:1;stroke:none;stroke-width:0.7;stroke-linecap:square;stroke-linejoin:miter;stroke-miterlimit:4;stroke-dasharray:none;stroke-dashoffset:29.8809;stroke-opacity:1"
       id="rect1586"
       width="3.7500033"
       height="10"
       x="103.125"
       y="10" />
    <path
       sodipodi:nodetypes="cc"
       style="fill:none;stroke:#ff0000;stroke-width:0.7;stroke-linecap:square;stroke-miterlimit:4;stroke-dasharray:none;stroke-dashoffset:29.8809;stroke-opacity:1"
       d="m 17.499999,152.5 0.625,-0.625"
       id="path1471" />
    <path
       style="fill:#ff0000;fill-opacity:1;stroke:#ff0000;stroke-width:1.5;stroke-linecap:butt;stroke-miterlimit:4;stroke-dasharray:none;stroke-opacity:1"
       d="m 76.249998,153.75 -1.25,1.875 -1.25,-1.875 z"
       id="path599"
       sodipodi:nodetypes="cccc" />
    <g
       id="g517">
      <path
         sodipodi:nodetypes="cccc"
         id="path508"
         d="m 131.25,143.75 1.875,1.25 -1.875,1.25 z"
         style="opacity:1;fill:#ff0000;fill-opacity:1;stroke:#ff0000;stroke-width:1.2;stroke-linecap:butt;stroke-miterlimit:4;stroke-dasharray:none;stroke-opacity:1" />
      <path
         style="opacity:1;fill:#ff0000;fill-opacity:1;stroke:#ff0000;stroke-width:1.2;stroke-linecap:butt;stroke-miterlimit:4;stroke-dasharray:none;stroke-opacity:1"
         d="M 135,143.75 136.875,145 135,146.25 Z"
         id="path510"
         sodipodi:nodetypes="cccc" />
      <rect
         y="142.5"
         x="138.125"
         height="5"
         width="1.25"
         id="rect512"
         style="fill:#ff0000;stroke-width:0.499999;stroke-linecap:square;stroke-dashoffset:29.8809" />
    </g>
    <path
       sodipodi:nodetypes="cccc"
       id="path502"
       d="m 151.875,143.75 1.875,1.25 -1.875,1.25 z"
       style="opacity:1;fill:#ff0000;fill-opacity:1;stroke:#ff0000;stroke-width:1.2;stroke-linecap:butt;stroke-miterlimit:4;stroke-dasharray:none;stroke-opacity:1" />
    <rect
       y="142.5"
       x="154.99998"
       height="5"
       width="1.25"
       id="rect504"
       style="fill:#ff0000;stroke-width:0.499999;stroke-linecap:square;stroke-dashoffset:29.8809" />
    <rect
       y="142.5"
       x="157.5"
       height="5"
       width="1.25"
       id="rect506"
       style="fill:#ff0000;stroke-width:0.499999;stroke-linecap:square;stroke-dashoffset:29.8809" />
    <g
       transform="matrix(-1,0,0,1,280,-4.56e-6)"
       id="g525">
      <path
         style="opacity:1;fill:#ff0000;fill-opacity:1;stroke:#ff0000;stroke-width:1.2;stroke-linecap:butt;stroke-miterlimit:4;stroke-dasharray:none;stroke-opacity:1"
         d="m 131.25,143.75 1.875,1.25 -1.875,1.25 z"
         id="path519"
         sodipodi:nodetypes="cccc" />
      <path
         sodipodi:nodetypes="cccc"
         id="path521"
         d="M 135,143.75 136.875,145 135,146.25 Z"
         style="opacity:1;fill:#ff0000;fill-opacity:1;stroke:#ff0000;stroke-width:1.2;stroke-linecap:butt;stroke-miterlimit:4;stroke-dasharray:none;stroke-opacity:1" />
      <rect
         style="fill:#ff0000;stroke-width:0.499999;stroke-linecap:square;stroke-dashoffset:29.8809"
         id="rect523"
         width="1.25"
         height="5"
         x="138.125"
         y="142.5" />
    </g>
    <g
       transform="rotate(90,129.6875,140.3125)"
       id="g551">
      <path
         style="opacity:1;fill:#ff0000;fill-opacity:1;stroke:#ff0000;stroke-width:1.2;stroke-linecap:butt;stroke-miterlimit:4;stroke-dasharray:none;stroke-opacity:1"
         d="m 131.25,143.75 1.875,1.25 -1.875,1.25 z"
         id="path545"
         sodipodi:nodetypes="cccc" />
      <path
         sodipodi:nodetypes="cccc"
         id="path547"
         d="M 135,143.75 136.875,145 135,146.25 Z"
         style="opacity:1;fill:#ff0000;fill-opacity:1;stroke:#ff0000;stroke-width:1.2;stroke-linecap:butt;stroke-miterlimit:4;stroke-dasharray:none;stroke-opacity:1" />
    </g>
    <g
       id="g557"
       transform="matrix(-1,0,0,1,239.23166,0)">
      <path
         sodipodi:nodetypes="cccc"
         id="path553"
         d="m 131.25,143.75 1.875,1.25 -1.875,1.25 z"
         style="opacity:1;fill:#ff0000;fill-opacity:1;stroke:#ff0000;stroke-width:1.2;stroke-linecap:butt;stroke-miterlimit:4;stroke-dasharray:none;stroke-opacity:1" />
      <path
         style="opacity:1;fill:#ff0000;fill-opacity:1;stroke:#ff0000;stroke-width:1.2;stroke-linecap:butt;stroke-miterlimit:4;stroke-dasharray:none;stroke-opacity:1"
         d="M 135,143.75 136.875,145 135,146.25 Z"
         id="path555"
         sodipodi:nodetypes="cccc" />
    </g>
    <g
       id="g563"
       transform="translate(-39.375003)">
      <path
         sodipodi:nodetypes="cccc"
         id="path559"
         d="m 131.25,143.75 1.875,1.25 -1.875,1.25 z"
         style="opacity:1;fill:#ff0000;fill-opacity:1;stroke:#ff0000;stroke-width:1.2;stroke-linecap:butt;stroke-miterlimit:4;stroke-dasharray:none;stroke-opacity:1" />
      <path
         style="opacity:1;fill:#ff0000;fill-opacity:1;stroke:#ff0000;stroke-width:1.2;stroke-linecap:butt;stroke-miterlimit:4;stroke-dasharray:none;stroke-opacity:1"
         d="M 135,143.75 136.875,145 135,146.25 Z"
         id="path561"
         sodipodi:nodetypes="cccc" />
    </g>
    <g
       id="g569"
       transform="rotate(90,129.6875,140.3125)">
      <path
         sodipodi:nodetypes="cccc"
         id="path565"
         d="m 131.25,143.75 1.875,1.25 -1.875,1.25 z"
         style="opacity:1;fill:#ff0000;fill-opacity:1;stroke:#ff0000;stroke-width:1.2;stroke-linecap:butt;stroke-miterlimit:4;stroke-dasharray:none;stroke-opacity:1" />
      <path
         style="opacity:1;fill:#ff0000;fill-opacity:1;stroke:#ff0000;stroke-width:1.2;stroke-linecap:butt;stroke-miterlimit:4;stroke-dasharray:none;stroke-opacity:1"
         d="M 135,143.75 136.875,145 135,146.25 Z"
         id="path567"
         sodipodi:nodetypes="cccc" />
    </g>
    <g
       transform="matrix(0,-1,-1,0,260,279.375)"
       id="g575">
      <path
         style="opacity:1;fill:#ff0000;fill-opacity:1;stroke:#ff0000;stroke-width:1.2;stroke-linecap:butt;stroke-miterlimit:4;stroke-dasharray:none;stroke-opacity:1"
         d="m 131.25,143.75 1.875,1.25 -1.875,1.25 z"
         id="path571"
         sodipodi:nodetypes="cccc" />
      <path
         sodipodi:nodetypes="cccc"
         id="path573"
         d="M 135,143.75 136.875,145 135,146.25 Z"
         style="opacity:1;fill:#ff0000;fill-opacity:1;stroke:#ff0000;stroke-width:1.2;stroke-linecap:butt;stroke-miterlimit:4;stroke-dasharray:none;stroke-opacity:1" />
    </g>
    <circle
       r="3.75"
       cy="154.97499"
       cx="-124.975"
       id="circle579"
       style="fill:none;fill-opacity:1;stroke:#ff0000;stroke-width:1.2;stroke-linecap:butt;stroke-miterlimit:4;stroke-dasharray:none;stroke-opacity:1"
       transform="scale(-1,1)" />
    <rect
       style="fill:#ff0000;stroke-width:0.499999;stroke-linecap:square;stroke-dashoffset:29.8809"
       id="rect581"
       width="1.25"
       height="5"
       x="124.37499"
       y="152.5" />
    <rect
       y="152.5"
       x="134.375"
       height="5"
       width="1.25"
       id="rect583"
       style="fill:#ff0000;stroke-width:0.499999;stroke-linecap:square;stroke-dashoffset:29.8809" />
    <path
       d="m -112.37334,152.32334 a 3.75,3.75 0 0 1 0.8129,4.08671 3.75,3.75 0 0 1 -3.46455,2.31494 3.75,3.75 0 0 1 -3.46454,-2.31494 3.75,3.75 0 0 1 0.81289,-4.08671"
       sodipodi:arc-type="arc"
       sodipodi:open="true"
       sodipodi:end="3.9269908"
       sodipodi:start="5.4977871"
       sodipodi:ry="3.75"
       sodipodi:rx="3.75"
       sodipodi:cy="154.97499"
       sodipodi:cx="-115.02499"
       sodipodi:type="arc"
       transform="scale(-1,1)"
       style="fill:none;fill-opacity:1;stroke:#ff0000;stroke-width:1.2;stroke-linecap:butt;stroke-miterlimit:4;stroke-dasharray:none;stroke-opacity:1"
       id="circle585" />
    <rect
       style="fill:#ff0000;stroke-width:0.499999;stroke-linecap:square;stroke-dashoffset:29.8809"
       id="rect587"
       width="1.25"
       height="5"
       x="114.375"
       y="150" />
    <ellipse
       transform="rotate(90)"
       cy="-105.02499"
       cx="155.02499"
       id="ellipse589"
       style="opacity:1;fill:#ff0000;fill-opacity:1;stroke:#ff0000;stroke-width:1.2;stroke-linecap:butt;stroke-miterlimit:4;stroke-dasharray:none;stroke-opacity:1"
       rx="1.8750045"
       ry="1.8749963" />
    <rect
       style="fill:#ff0000;stroke-width:0.499999;stroke-linecap:square;stroke-dashoffset:29.8809"
       id="rect591"
       width="4.9999967"
       height="4.9999948"
       x="92.5"
       y="152.5" />
    <rect
       style="fill:#ff0000;stroke-width:0.499999;stroke-linecap:square;stroke-dashoffset:29.8809"
       id="rect593"
       width="1.25"
       height="5"
       x="83.125"
       y="152.5" />
    <rect
       style="fill:#ff0000;stroke-width:0.499999;stroke-linecap:square;stroke-dashoffset:29.8809"
       id="rect595"
       width="1.25"
       height="5"
       x="85.625015"
       y="152.5" />
    <path
       sodipodi:nodetypes="cccc"
       id="path1427"
       d="m 43.749999,153.75 1.875,1.25 -1.875,1.25 z"
       style="fill:#ff0000;fill-opacity:1;stroke:#ff0000;stroke-width:1.5;stroke-linecap:butt;stroke-miterlimit:4;stroke-dasharray:none;stroke-opacity:1" />
    <path
       style="fill:#ff0000;fill-opacity:1;stroke:#ff0000;stroke-width:1.5;stroke-linecap:butt;stroke-miterlimit:4;stroke-dasharray:none;stroke-opacity:1"
       d="m 56.249998,153.75 -1.875,1.25 1.875,1.25 z"
       id="path1435"
       sodipodi:nodetypes="cccc" />
    <path
       sodipodi:nodetypes="cccc"
       id="path1437"
       d="m 66.249998,156.25 -1.25,-1.875 -1.25,1.875 z"
       style="fill:#ff0000;fill-opacity:1;stroke:#ff0000;stroke-width:1.5;stroke-linecap:butt;stroke-miterlimit:4;stroke-dasharray:none;stroke-opacity:1" />
    <ellipse
       ry="3.1499987"
       rx="3.1499999"
       cx="-4.9749999"
       cy="155.02499"
       id="circle1439"
       style="fill:#ffffff;fill-opacity:1;stroke:#ff0000;stroke-width:0.99999997;stroke-linecap:butt;stroke-miterlimit:4;stroke-dasharray:none;stroke-opacity:1"
       transform="scale(-1,1)" />
    <path
       sodipodi:nodetypes="ccc"
       id="path1441"
       d="M 4.9999998,152.93016 5,155 l 1.2499999,0.625"
       style="fill:none;stroke:#030000;stroke-width:0.7;stroke-linecap:square;stroke-miterlimit:4;stroke-dasharray:none;stroke-dashoffset:29.8809;stroke-opacity:1" />
    <path
       id="path1445"
       d="m 2.5,158.75 0.6250001,-0.625"
       style="fill:none;stroke:#ff0000;stroke-width:0.7;stroke-linecap:square;stroke-miterlimit:4;stroke-dasharray:none;stroke-dashoffset:29.8809;stroke-opacity:1" />
    <path
       id="path1447"
       d="M 7.5,158.75 6.8749999,158.125"
       style="fill:none;stroke:#ff0000;stroke-width:0.7;stroke-linecap:square;stroke-miterlimit:4;stroke-dasharray:none;stroke-dashoffset:29.8809;stroke-opacity:1" />
    <path
       sodipodi:open="true"
       d="M 0.95166851,153.48213 A 1.8175472,1.8175472 0 0 1 1.2032661,151.113 1.8175472,1.8175472 0 0 1 3.5842114,151.02829"
       sodipodi:arc-type="arc"
       sodipodi:end="5.3915425"
       sodipodi:start="2.5326784"
       sodipodi:ry="1.8175472"
       sodipodi:rx="1.8175472"
       sodipodi:cy="152.44254"
       sodipodi:cx="2.4425471"
       sodipodi:type="arc"
       id="path1449"
       style="fill:#ff0000;fill-opacity:1;stroke:none;stroke-width:0.7;stroke-linecap:square;stroke-linejoin:miter;stroke-miterlimit:4;stroke-dasharray:none;stroke-dashoffset:29.8809;stroke-opacity:1" />
    <path
       transform="scale(-1,1)"
       style="fill:#ff0000;fill-opacity:1;stroke:none;stroke-width:0.7;stroke-linecap:square;stroke-linejoin:miter;stroke-miterlimit:4;stroke-dasharray:none;stroke-dashoffset:29.8809;stroke-opacity:1"
       id="path1451"
       sodipodi:type="arc"
       sodipodi:cx="-7.5574527"
       sodipodi:cy="152.44254"
       sodipodi:rx="1.8175472"
       sodipodi:ry="1.8175472"
       sodipodi:start="2.5326784"
       sodipodi:end="5.3915425"
       sodipodi:arc-type="arc"
       d="m -9.0483313,153.48213 a 1.8175472,1.8175472 0 0 1 0.2515976,-2.36913 1.8175472,1.8175472 0 0 1 2.3809453,-0.0847"
       sodipodi:open="true" />
    <rect
       y="150.625"
       x="4.375"
       height="1.25"
       width="1.25"
       id="rect1453"
       style="fill:#ff0000;fill-opacity:1;stroke:none;stroke-width:0.7;stroke-linecap:square;stroke-linejoin:miter;stroke-miterlimit:4;stroke-dasharray:none;stroke-dashoffset:29.8809;stroke-opacity:1" />
    <ellipse
       transform="scale(-1,1)"
       style="fill:#ffffff;fill-opacity:1;stroke:#ff0000;stroke-width:1;stroke-linecap:butt;stroke-miterlimit:4;stroke-dasharray:none;stroke-opacity:1"
       id="ellipse1455"
       cy="155.02499"
       cx="-14.974999"
       rx="3.1499999"
       ry="3.1499987" />
    <path
       style="fill:none;stroke:#030000;stroke-width:0.7;stroke-linecap:square;stroke-miterlimit:4;stroke-dasharray:none;stroke-dashoffset:29.8809;stroke-opacity:1"
       d="M 14.999999,152.93016 15,155"
       id="path1457"
       sodipodi:nodetypes="cc" />
    <rect
       style="fill:#ff0000;fill-opacity:1;stroke:none;stroke-width:0.7;stroke-linecap:square;stroke-linejoin:miter;stroke-miterlimit:4;stroke-dasharray:none;stroke-dashoffset:29.8809;stroke-opacity:1"
       id="rect1467"
       width="1.25"
       height="1.25"
       x="14.374999"
       y="150.625" />
    <ellipse
       ry="3.1499987"
       rx="3.1499999"
       cx="-24.974998"
       cy="155.02499"
       id="ellipse1473"
       style="fill:#ffffff;fill-opacity:1;stroke:#ff0000;stroke-width:1;stroke-linecap:butt;stroke-miterlimit:4;stroke-dasharray:none;stroke-opacity:1"
       transform="scale(-1,1)" />
    <path
       sodipodi:nodetypes="cc"
       id="path1475"
       d="m 23.124999,154.375 1.875,0.625"
       style="fill:none;stroke:#030000;stroke-width:0.7;stroke-linecap:square;stroke-miterlimit:4;stroke-dasharray:none;stroke-dashoffset:29.8809;stroke-opacity:1" />
    <circle
       r="0.3125"
       cy="152.8125"
       cx="25"
       id="path1477"
       style="fill:#ff0000;fill-opacity:1;stroke:none;stroke-width:0.7;stroke-linecap:square;stroke-linejoin:miter;stroke-miterlimit:4;stroke-dasharray:none;stroke-dashoffset:29.8809;stroke-opacity:1" />
    <rect
       y="150.625"
       x="31.875"
       height="1.2499951"
       width="6.2499986"
       id="rect1505"
       style="fill:#ff0000;fill-opacity:1;stroke:none;stroke-width:0.7;stroke-linecap:square;stroke-linejoin:miter;stroke-miterlimit:4;stroke-dasharray:none;stroke-dashoffset:29.8809;stroke-opacity:1" />
    <rect
       style="fill:#ff0000;fill-opacity:1;stroke:none;stroke-width:0.7;stroke-linecap:square;stroke-linejoin:miter;stroke-miterlimit:4;stroke-dasharray:none;stroke-dashoffset:29.8809;stroke-opacity:1"
       id="rect1507"
       width="6.2499986"
       height="1.2499951"
       x="31.874998"
       y="158.125" />
    <path
       sodipodi:nodetypes="csccccccccccscc"
       d="m 32.820811,152.45867 c 0.535271,0.99469 1.554427,1.57794 1.554427,2.50011 0,0.009 -0.0024,0.018 -0.0026,0.0274 l 0.47699,0.0956 v 2.14043 l -1.224731,0.77773 -0.08372,0.12506 h 2.91765 l -0.08371,-0.12506 -1.224731,-0.77773 v -2.14043 l 0.476973,-0.0956 c -2.11e-4,-0.009 -0.0026,-0.018 -0.0026,-0.0274 0,-0.92217 1.019157,-1.50542 1.554428,-2.50011 z"
       style="fill:#ffff00;fill-opacity:1;stroke:none;stroke-width:0.7;stroke-linecap:square;stroke-linejoin:miter;stroke-miterlimit:4;stroke-dasharray:none;stroke-dashoffset:29.8809;stroke-opacity:1"
       id="path1511" />
    <rect
       y="14.999999"
       x="158.75"
       height="5.0000005"
       width="1.2500051"
       id="rect1548"
       style="fill:#ff0000;fill-opacity:1;stroke:none;stroke-width:0.7;stroke-linecap:square;stroke-linejoin:miter;stroke-miterlimit:4;stroke-dasharray:none;stroke-dashoffset:29.8809;stroke-opacity:1" />
    <rect
       y="18.75"
       x="155"
       height="1.2500006"
       width="5.0000048"
       id="rect1550"
       style="fill:#ff0000;fill-opacity:1;stroke:none;stroke-width:0.7;stroke-linecap:square;stroke-linejoin:miter;stroke-miterlimit:4;stroke-dasharray:none;stroke-dashoffset:29.8809;stroke-opacity:1" />
    <rect
       style="fill:#ff0000;fill-opacity:1;stroke:none;stroke-width:0.7;stroke-linecap:square;stroke-linejoin:miter;stroke-miterlimit:4;stroke-dasharray:none;stroke-dashoffset:29.8809;stroke-opacity:1"
       id="rect1552"
       width="1.2500051"
       height="5.0000005"
       x="140"
       y="14.999999" />
    <rect
       style="fill:#ff0000;fill-opacity:1;stroke:none;stroke-width:0.7;stroke-linecap:square;stroke-linejoin:miter;stroke-miterlimit:4;stroke-dasharray:none;stroke-dashoffset:29.8809;stroke-opacity:1"
       id="rect1554"
       width="5.0000048"
       height="1.2500006"
       x="140"
       y="18.75" />
    <rect
       y="10"
       x="138.75"
       height="5.0000005"
       width="1.2500051"
       id="rect1556"
       style="fill:#ff0000;fill-opacity:1;stroke:none;stroke-width:0.7;stroke-linecap:square;stroke-linejoin:miter;stroke-miterlimit:4;stroke-dasharray:none;stroke-dashoffset:29.8809;stroke-opacity:1" />
    <rect
       y="10"
       x="135"
       height="1.2500006"
       width="5.0000048"
       id="rect1558"
       style="fill:#ff0000;fill-opacity:1;stroke:none;stroke-width:0.7;stroke-linecap:square;stroke-linejoin:miter;stroke-miterlimit:4;stroke-dasharray:none;stroke-dashoffset:29.8809;stroke-opacity:1" />
    <rect
       style="fill:#ff0000;fill-opacity:1;stroke:none;stroke-width:0.7;stroke-linecap:square;stroke-linejoin:miter;stroke-miterlimit:4;stroke-dasharray:none;stroke-dashoffset:29.8809;stroke-opacity:1"
       id="rect1560"
       width="1.2500051"
       height="5.0000005"
       x="119.99999"
       y="9.999999" />
    <rect
       style="fill:#ff0000;fill-opacity:1;stroke:none;stroke-width:0.7;stroke-linecap:square;stroke-linejoin:miter;stroke-miterlimit:4;stroke-dasharray:none;stroke-dashoffset:29.8809;stroke-opacity:1"
       id="rect1562"
       width="5.0000048"
       height="1.2500006"
       x="119.99999"
       y="10" />
    <ellipse
       transform="scale(-1,1)"
       style="fill:#ffffff;fill-opacity:1;stroke:#ff0000;stroke-width:1;stroke-linecap:butt;stroke-miterlimit:4;stroke-dasharray:none;stroke-opacity:1"
       id="ellipse1574"
       cy="15.024993"
       cx="-104.975"
       rx="3.1499999"
       ry="3.1499987" />
    <path
       style="fill:none;stroke:#030000;stroke-width:0.7;stroke-linecap:square;stroke-miterlimit:4;stroke-dasharray:none;stroke-dashoffset:29.8809;stroke-opacity:1"
       d="M 105,12.930159 105,15 l 1.25,0.625"
       id="path1576"
       sodipodi:nodetypes="ccc" />
    <rect
       transform="scale(1,-1)"
       style="fill:#ff0000;fill-opacity:1;stroke:none;stroke-width:0.7;stroke-linecap:square;stroke-linejoin:miter;stroke-miterlimit:4;stroke-dasharray:none;stroke-dashoffset:29.8809;stroke-opacity:1"
       id="rect1566"
       width="6.2499986"
       height="1.2499951"
       x="111.875"
       y="-19.374994" />
    <rect
       transform="scale(1,-1)"
       y="-11.874995"
       x="111.87499"
       height="1.2499951"
       width="6.2499986"
       id="rect1568"
       style="fill:#ff0000;fill-opacity:1;stroke:none;stroke-width:0.7;stroke-linecap:square;stroke-linejoin:miter;stroke-miterlimit:4;stroke-dasharray:none;stroke-dashoffset:29.8809;stroke-opacity:1" />
    <path
       id="path1570"
       style="fill:#ffff00;fill-opacity:1;stroke:none;stroke-width:0.7;stroke-linecap:square;stroke-linejoin:miter;stroke-miterlimit:4;stroke-dasharray:none;stroke-dashoffset:29.8809;stroke-opacity:1"
       d="m 112.82081,18.124999 c 0.53527,-0.99469 1.55442,-2.161614 1.55442,-3.083784 0,-0.009 -0.002,-0.018 -0.003,-0.0274 l 0.47699,-0.0956 h 0.30079 l 0.47698,0.0956 c -2.2e-4,0.009 -0.003,0.018 -0.003,0.0274 0,0.92217 1.01915,2.089094 1.55442,3.083784 z"
       sodipodi:nodetypes="csccccscc" />
    <path
       style="fill:none;fill-opacity:1;stroke:#ff0000;stroke-width:0.99999997;stroke-linecap:square;stroke-linejoin:miter;stroke-miterlimit:4;stroke-dasharray:none;stroke-dashoffset:29.8809;stroke-opacity:1"
       d="m 112.5,18.749995 h 5 c 0,-1.875 -1.875,-2.5 -1.875,-3.75 0,-1.25 1.875,-1.87499 1.875,-3.74999 h -5 c 0,1.875 1.875,2.49999 1.875,3.74999 0,1.25 -1.87501,1.87501 -1.875,3.75 z"
       id="path1564"
       sodipodi:nodetypes="ccccccc" />
    <path
       sodipodi:nodetypes="ccccccc"
       id="path1503"
       d="m 32.499999,151.25 5,0 c 0,1.875 -1.875,2.5 -1.875,3.75 0,1.25 1.875,1.87499 1.875,3.74999 h -4.999998 c -2e-6,-1.875 1.874998,-2.49999 1.874998,-3.74999 0,-1.25 -1.875002,-1.87501 -1.875,-3.75 z"
       style="fill:none;fill-opacity:1;stroke:#ff0000;stroke-width:0.99999997;stroke-linecap:square;stroke-linejoin:miter;stroke-miterlimit:4;stroke-dasharray:none;stroke-dashoffset:29.8809;stroke-opacity:1" />
    <path
       sodipodi:nodetypes="cccc"
       id="path1612"
       d="M 156.25,125 155,123.125 153.75,125 Z"
       style="fill:#ff0000;fill-opacity:1;stroke:#ff0000;stroke-width:1.2;stroke-linecap:butt;stroke-miterlimit:4;stroke-dasharray:none;stroke-opacity:1" />
    <rect
       y="126.24999"
       x="152.49998"
       height="1.25"
       width="5"
       id="rect1618"
       style="fill:#ff0000;fill-opacity:1;stroke:none;stroke-width:1;stroke-linecap:square;stroke-linejoin:miter;stroke-miterlimit:4;stroke-dasharray:none;stroke-dashoffset:29.8809;stroke-opacity:1" />
    <path
       sodipodi:nodetypes="cccc"
       id="path1620"
       d="m 144.375,124.375 -1.875,1.25 1.875,1.25 z"
       style="fill:#ff0000;fill-opacity:1;stroke:#ff0000;stroke-width:1.5;stroke-linecap:butt;stroke-miterlimit:4;stroke-dasharray:none;stroke-opacity:1" />
    <rect
       style="fill:#ff0000;fill-opacity:1;stroke:none;stroke-width:1;stroke-linecap:square;stroke-linejoin:miter;stroke-miterlimit:4;stroke-dasharray:none;stroke-dashoffset:29.8809;stroke-opacity:1"
       id="rect1622"
       width="5"
       height="1.25"
       x="143.75"
       y="124.99999" />
    <rect
       y="121.24999"
       x="147.5"
       height="5.0000038"
       width="1.2500048"
       id="rect1624"
       style="fill:#ff0000;fill-opacity:1;stroke:none;stroke-width:1;stroke-linecap:square;stroke-linejoin:miter;stroke-miterlimit:4;stroke-dasharray:none;stroke-dashoffset:29.8809;stroke-opacity:1" />
  </g>
</svg>
