<?xml version="1.0" encoding="UTF-8" standalone="no"?>
<svg
   xmlns:dc="http://purl.org/dc/elements/1.1/"
   xmlns:cc="http://creativecommons.org/ns#"
   xmlns:rdf="http://www.w3.org/1999/02/22-rdf-syntax-ns#"
   xmlns:svg="http://www.w3.org/2000/svg"
   xmlns="http://www.w3.org/2000/svg"
   xmlns:sodipodi="http://sodipodi.sourceforge.net/DTD/sodipodi-0.dtd"
   xmlns:inkscape="http://www.inkscape.org/namespaces/inkscape"
   width="160mm"
   height="160mm"
   viewBox="0 0 160 160"
   version="1.1"
   id="svg8"
   inkscape:version="1.0 (4035a4fb49, 2020-05-01)"
   sodipodi:docname="f80.svg"
   inkscape:export-filename="/var/home/dave/love2d/ideal/atlas/f80.png"
   inkscape:export-xdpi="162.56"
   inkscape:export-ydpi="162.56">
  <defs
     id="defs2">
    <path
       id="g"
       d="m93.3 60.56c-5.43-21.16-23.7-23.53-29.34-18.14-5.64-5.38-23.84-3.01-29.27 18.14-11.14 43.36-5.69 59.14 29.31 60.27v0.02s-0.07-0.01 0-0.01 0 0.01 0 0.01v-0.02c35-1.13 40.43-16.91 29.3-60.27z" />
    <path
       id="e"
       d="m71.77 78.07 0.01 0.48c0.02 1.34-0.3 2.61-0.88 3.72-0.23 0.44-0.51 0.86-0.82 1.25s-0.66 0.75-1.04 1.07c-1.33 1.13-3.04 1.83-4.92 1.86-0.23 0-0.47 0-0.7-0.02s-0.46-0.04-0.68-0.08c-0.67-0.11-1.32-0.3-1.92-0.57s-1.17-0.61-1.68-1.02c-0.39-0.31-0.75-0.66-1.07-1.04s-0.61-0.79-0.86-1.23c-0.62-1.09-0.98-2.35-1-3.69l-0.01-0.48c3.46-0.06 7.74-1.97 7.68-5.85 0.09 3.89 4.43 5.66 7.89 5.6z" />
    <path
       id="a"
       d="m71.77 78.07 0.01 0.48c0.02 1.34-0.3 2.61-0.88 3.72-0.23 0.44-0.51 0.86-0.82 1.25s-0.66 0.75-1.04 1.07c-1.33 1.13-3.04 1.83-4.92 1.86-0.23 0-0.47 0-0.7-0.02s-0.46-0.04-0.68-0.08c-0.67-0.11-1.32-0.3-1.92-0.57s-1.17-0.61-1.68-1.02c-0.39-0.31-0.75-0.66-1.07-1.04s-0.61-0.79-0.86-1.23c-0.62-1.09-0.98-2.35-1-3.69l-0.01-0.48c3.46-0.06 7.74-1.97 7.68-5.85 0.09 3.89 4.43 5.66 7.89 5.6z" />
  </defs>
  <sodipodi:namedview
     id="base"
     pagecolor="#000000"
     bordercolor="#666666"
     borderopacity="1.0"
     inkscape:pageopacity="0"
     inkscape:pageshadow="2"
     inkscape:zoom="5.6"
     inkscape:cx="59.413802"
     inkscape:cy="14.566342"
     inkscape:document-units="cm"
     inkscape:current-layer="layer1"
     inkscape:document-rotation="0"
     showgrid="true"
     showguides="false"
     inkscape:pagecheckerboard="false"
     gridtolerance="10000"
     guidetolerance="20"
     objecttolerance="1"
     inkscape:object-nodes="true"
     inkscape:snap-bbox="true"
     inkscape:bbox-nodes="true"
     inkscape:snap-global="true"
     inkscape:snap-nodes="true"
     inkscape:object-paths="false"
     inkscape:window-width="1366"
     inkscape:window-height="704"
     inkscape:window-x="0"
     inkscape:window-y="0"
     inkscape:window-maximized="1">
    <sodipodi:guide
       position="-343.20237,111.03572"
       orientation="1,0"
       id="guide10" />
    <inkscape:grid
       type="xygrid"
       id="grid12"
       units="mm"
       spacingx="0.62499998"
       spacingy="0.62499998"
       empspacing="16"
       originx="0"
       originy="0" />
  </sodipodi:namedview>
  <metadata
     id="metadata5">
    <rdf:RDF>
      <cc:Work
         rdf:about="">
        <dc:format>image/svg+xml</dc:format>
        <dc:type
           rdf:resource="http://purl.org/dc/dcmitype/StillImage" />
        <dc:title></dc:title>
      </cc:Work>
    </rdf:RDF>
  </metadata>
  <g
     inkscape:label="Layer 1"
     inkscape:groupmode="layer"
     id="layer1">
    <rect
       y="4.3749995"
       x="18.749998"
       height="5.625"
       width="1.25"
       id="rect1090"
       style="fill:#784421;fill-opacity:1;stroke-width:0.499999;stroke-linecap:square;stroke-dashoffset:29.8809" />
    <rect
       style="fill:#c87137;fill-opacity:1;stroke-width:0.499999;stroke-linecap:square;stroke-dashoffset:29.8809"
       id="rect1092"
       width="0.62500018"
       height="5.625"
       x="19.374998"
       y="4.3749995" />
    <path
       sodipodi:nodetypes="ccccc"
       d="m 22.5,4.3749995 h 1.25 l -0.625001,5.6250002 h -1.25 z"
       style="fill:#784421;fill-opacity:1;stroke-width:0.499999;stroke-linecap:square;stroke-dashoffset:29.8809"
       id="rect1125" />
    <path
       sodipodi:nodetypes="ccccc"
       d="m 23.125,4.3749995 h 0.625 l -0.625001,5.6250002 h -0.625 z"
       style="fill:#c87137;fill-opacity:1;stroke-width:0.499999;stroke-linecap:square;stroke-dashoffset:29.8809"
       id="rect1127" />
    <path
       id="rect1129"
       style="fill:#784421;fill-opacity:1;stroke-width:0.499999;stroke-linecap:square;stroke-dashoffset:29.8809"
       d="m 26.249998,4.3749995 h 1.25 l 0.625001,5.6250001 h -1.25 z"
       sodipodi:nodetypes="ccccc" />
    <path
       id="rect1131"
       style="fill:#c87137;fill-opacity:1;stroke-width:0.499999;stroke-linecap:square;stroke-dashoffset:29.8809"
       d="m 26.874998,4.3749993 h 0.625 l 0.625001,5.6250003 h -0.625 z"
       sodipodi:nodetypes="ccccc" />
    <path
       sodipodi:nodetypes="ccccc"
       d="M 24.375,5 H 25 l -1e-6,3.7499997 h -0.625 z"
       style="fill:#784421;fill-opacity:1;stroke-width:0.499999;stroke-linecap:square;stroke-dashoffset:29.8809"
       id="rect1135" />
    <path
       sodipodi:nodetypes="ccccc"
       d="M 24.999999,4.9999998 H 25.625 l -1e-6,3.7499999 h -0.625001 z"
       style="fill:#c87137;fill-opacity:1;stroke-width:0.499999;stroke-linecap:square;stroke-dashoffset:29.8809"
       id="rect1137" />
    <ellipse
       ry="1.25"
       rx="3.7499993"
       cy="4.375"
       cx="24.999998"
       id="ellipse1141"
       style="fill:#d40000;stroke-width:0.499998;stroke-linecap:square;stroke-dashoffset:29.8809" />
    <rect
       y="3.125"
       x="21.249998"
       height="1.25"
       width="7.5"
       id="rect1145"
       style="fill:#d40000;fill-opacity:1;stroke-width:0.499999;stroke-linecap:square;stroke-dashoffset:29.8809" />
    <ellipse
       ry="0.625"
       rx="1.8749996"
       cy="9.375"
       cx="4.9999995"
       id="ellipse220"
       style="fill:#784421;stroke-width:0.499999;stroke-linecap:square;stroke-dashoffset:29.8809" />
    <rect
       y="3.75"
       x="4.375"
       height="5.625"
       width="1.25"
       id="rect214"
       style="fill:#784421;fill-opacity:1;stroke-width:0.499999;stroke-linecap:square;stroke-dashoffset:29.8809" />
    <rect
       style="fill:#c87137;fill-opacity:1;stroke-width:0.499999;stroke-linecap:square;stroke-dashoffset:29.8809"
       id="rect1078"
       width="0.62500018"
       height="5.625"
       x="5"
       y="3.7499998" />
    <path
       sodipodi:nodetypes="cccccc"
       d="M 3.1251587,0.62476801 1.2498211,4.3749266 C 1.2497331,5.065324 2.9287879,5.625009 4.9999798,5.6249796 7.0711717,5.625009 8.7502265,5.065324 8.7501384,4.3749266 L 6.8748006,0.62476801 Z"
       style="fill:#ff0000;fill-opacity:1;stroke-width:0.499999;stroke-linecap:square;stroke-dashoffset:29.8809"
       id="ellipse222" />
    <ellipse
       style="fill:#ffaaaa;stroke-width:0.499999;stroke-linecap:square;stroke-dashoffset:29.8809"
       id="ellipse218"
       cx="5"
       cy="0.62499994"
       rx="1.8749996"
       ry="0.625" />
    <rect
       style="fill:#784421;fill-opacity:1;stroke-width:0.499999;stroke-linecap:square;stroke-dashoffset:29.8809"
       id="rect1084"
       width="1.25"
       height="5.625"
       x="10"
       y="4.3749995" />
    <rect
       y="4.3749995"
       x="10.625"
       height="5.625"
       width="0.62500018"
       id="rect1086"
       style="fill:#c87137;fill-opacity:1;stroke-width:0.499999;stroke-linecap:square;stroke-dashoffset:29.8809" />
    <rect
       style="fill:#784421;fill-opacity:1;stroke-width:0.499999;stroke-linecap:square;stroke-dashoffset:29.8809"
       id="rect1096"
       width="0.62499964"
       height="1.2499998"
       x="11.25"
       y="5" />
    <rect
       y="5"
       x="18.125"
       height="1.2499998"
       width="0.6249994"
       id="rect1102"
       style="fill:#784421;fill-opacity:1;stroke-width:0.499999;stroke-linecap:square;stroke-dashoffset:29.8809" />
    <rect
       y="-2.220446e-16"
       x="10"
       height="5.625"
       width="9.999999"
       id="rect1108"
       style="fill:#d38d5f;fill-opacity:1;stroke-width:0.499999;stroke-linecap:square;stroke-dashoffset:29.8809" />
    <rect
       style="fill:#784421;fill-opacity:1;stroke-width:0.499999;stroke-linecap:square;stroke-dashoffset:29.8809"
       id="rect1116"
       width="9.999999"
       height="1.2499998"
       x="10"
       y="4.375" />
    <ellipse
       style="fill:#ff0000;stroke-width:0.499998;stroke-linecap:square;stroke-dashoffset:29.8809"
       id="ellipse1143"
       cx="24.999998"
       cy="3.125"
       rx="3.7499993"
       ry="1.25" />
    <rect
       y="1.25"
       x="31.25"
       height="8.125"
       width="7.4999986"
       id="rect1153"
       style="fill:#aa0000;fill-opacity:1;stroke-width:0.499999;stroke-linecap:square;stroke-dashoffset:29.8809" />
    <rect
       y="1.875"
       x="31.875"
       height="6.8749995"
       width="6.2499986"
       id="rect1155"
       style="fill:#ff0000;fill-opacity:1;stroke-width:0.499999;stroke-linecap:square;stroke-dashoffset:29.8809" />
    <rect
       y="1.25"
       x="38.75"
       height="0.625"
       width="1.25"
       id="rect1157"
       style="fill:#ff0000;fill-opacity:1;stroke-width:0.499999;stroke-linecap:square;stroke-dashoffset:29.8809" />
    <rect
       style="fill:#ff0000;fill-opacity:1;stroke-width:0.499999;stroke-linecap:square;stroke-dashoffset:29.8809"
       id="rect1159"
       width="1.25"
       height="0.625"
       x="38.75"
       y="2.5" />
    <rect
       y="3.7499998"
       x="38.75"
       height="0.625"
       width="1.25"
       id="rect1161"
       style="fill:#ff0000;fill-opacity:1;stroke-width:0.499999;stroke-linecap:square;stroke-dashoffset:29.8809" />
    <rect
       style="fill:#ff0000;fill-opacity:1;stroke-width:0.499999;stroke-linecap:square;stroke-dashoffset:29.8809"
       id="rect1163"
       width="1.25"
       height="0.625"
       x="38.75"
       y="5" />
    <rect
       y="6.25"
       x="38.75"
       height="0.625"
       width="1.25"
       id="rect1165"
       style="fill:#ff0000;fill-opacity:1;stroke-width:0.499999;stroke-linecap:square;stroke-dashoffset:29.8809" />
    <rect
       style="fill:#ff0000;fill-opacity:1;stroke-width:0.499999;stroke-linecap:square;stroke-dashoffset:29.8809"
       id="rect1167"
       width="1.25"
       height="0.625"
       x="38.75"
       y="7.4999995" />
    <rect
       y="8.75"
       x="38.75"
       height="0.625"
       width="1.25"
       id="rect1169"
       style="fill:#ff0000;fill-opacity:1;stroke-width:0.499999;stroke-linecap:square;stroke-dashoffset:29.8809" />
    <rect
       style="fill:#ff0000;fill-opacity:1;stroke-width:0.499999;stroke-linecap:square;stroke-dashoffset:29.8809"
       id="rect1171"
       width="1.25"
       height="0.625"
       x="29.999998"
       y="1.2499999" />
    <rect
       y="2.5"
       x="29.999998"
       height="0.625"
       width="1.25"
       id="rect1173"
       style="fill:#ff0000;fill-opacity:1;stroke-width:0.499999;stroke-linecap:square;stroke-dashoffset:29.8809" />
    <rect
       style="fill:#ff0000;fill-opacity:1;stroke-width:0.499999;stroke-linecap:square;stroke-dashoffset:29.8809"
       id="rect1175"
       width="1.25"
       height="0.625"
       x="29.999998"
       y="3.7499998" />
    <rect
       y="5"
       x="29.999998"
       height="0.625"
       width="1.25"
       id="rect1177"
       style="fill:#ff0000;fill-opacity:1;stroke-width:0.499999;stroke-linecap:square;stroke-dashoffset:29.8809" />
    <rect
       style="fill:#ff0000;fill-opacity:1;stroke-width:0.499999;stroke-linecap:square;stroke-dashoffset:29.8809"
       id="rect1179"
       width="1.25"
       height="0.625"
       x="29.999998"
       y="6.25" />
    <rect
       y="7.4999995"
       x="29.999998"
       height="0.625"
       width="1.25"
       id="rect1181"
       style="fill:#ff0000;fill-opacity:1;stroke-width:0.499999;stroke-linecap:square;stroke-dashoffset:29.8809" />
    <rect
       style="fill:#ff0000;fill-opacity:1;stroke-width:0.499999;stroke-linecap:square;stroke-dashoffset:29.8809"
       id="rect1183"
       width="1.25"
       height="0.625"
       x="29.999998"
       y="8.75" />
    <path
       id="path1185"
       d="m 31.875001,5.3124998 3.124996,-3.125 3.125001,3.125 -3.125001,3.125 z"
       style="fill:#aa0000;fill-opacity:1;stroke-width:0.499999;stroke-linecap:square;stroke-dashoffset:29.8809" />
    <rect
       y="3.75"
       x="33.75"
       height="3.1249998"
       width="2.4999988"
       id="rect1189"
       style="fill:#ff0000;fill-opacity:1;stroke-width:0.499999;stroke-linecap:square;stroke-dashoffset:29.8809" />
  </g>
</svg>
